PathFileType	4	(X/Y/Z)	C:/Users/opensim2020/Desktop/walking_exp_matlab/subject03_walking17_run.trc	
DataRate	CameraRate	NumFrames	NumMarkers	Units	OrigDataRate	OrigDataStartFrame	OrigNumFrames	
100.00	100.00	4	50	mm	100.00	220	132	
Frame#	Time	RTOE			LTHI			RWRB			LTIB			RELB			RUPA			RKNE			RTHI			RASI			RFRM			RWRA			RSHO			STRN			LFRM			CLAV			LWRB			LASI			RFHD			LFIN			LSHO			RTIB			LWRA			RBHD			LHEE			RANK			RHEE			C7			RFIN			LBHD			LUPA			LTOE			RBAK			LELB			LFHD			RPSI			LPSI			T10			LKNE			LANK			*39			*40			*41			*42			*43			*44			*45			*46			*47			*48			*49			
		X1	Y1	Z1	X2	Y2	Z2	X3	Y3	Z3	X4	Y4	Z4	X5	Y5	Z5	X6	Y6	Z6	X7	Y7	Z7	X8	Y8	Z8	X9	Y9	Z9	X10	Y10	Z10	X11	Y11	Z11	X12	Y12	Z12	X13	Y13	Z13	X14	Y14	Z14	X15	Y15	Z15	X16	Y16	Z16	X17	Y17	Z17	X18	Y18	Z18	X19	Y19	Z19	X20	Y20	Z20	X21	Y21	Z21	X22	Y22	Z22	X23	Y23	Z23	X24	Y24	Z24	X25	Y25	Z25	X26	Y26	Z26	X27	Y27	Z27	X28	Y28	Z28	X29	Y29	Z29	X30	Y30	Z30	X31	Y31	Z31	X32	Y32	Z32	X33	Y33	Z33	X34	Y34	Z34	X35	Y35	Z35	X36	Y36	Z36	X37	Y37	Z37	X38	Y38	Z38	X39	Y39	Z39	X40	Y40	Z40	X41	Y41	Z41	X42	Y42	Z42	X43	Y43	Z43	X44	Y44	Z44	X45	Y45	Z45	X46	Y46	Z46	X47	Y47	Z47	X48	Y48	Z48	X49	Y49	Z49	X50	Y50	Z50	

17	0.160	233.32607	-1961.64319	174.88220	36.85588	-1283.21594	620.38708	347.66232	-1183.81604	948.69751	88.57880	-1196.99927	276.58179	463.22299	-1343.68457	1055.18408	456.85156	-1349.55933	1153.84900	316.47379	-1516.49634	420.25528	359.82739	-1460.25000	593.05072	340.01480	-1313.11609	874.91351	398.57544	-1252.90344	997.84186	319.51157	-1187.95496	993.76807	350.87662	-1300.36328	1346.17627	200.15143	-1226.88245	1122.06873	-62.49762	-1426.18115	1065.07141	199.12433	-1255.04395	1294.13721	-39.29250	-1377.21765	962.31189	113.55161	-1307.29285	889.13055	287.61267	-1281.37463	1577.40002	-6.11359	-1411.90027	881.71301	53.44965	-1301.09058	1343.52148	313.60956	-1706.20874	364.32755	16.89686	-1380.18542	975.56049	264.79572	-1387.48718	1506.13245	193.78271	-1218.88525	44.17417	269.59866	-1913.34448	311.21957	218.44760	-1935.63196	356.23083	194.69719	-1379.32739	1368.74634	308.89651	-1121.00549	949.89075	136.13274	-1368.82129	1513.67383	-65.15874	-1414.39124	1238.83557	154.87827	-1032.70898	36.40814	309.05624	-1428.51025	1214.13599	-99.67372	-1482.83459	1155.73145	157.10507	-1257.44348	1585.44885	301.78317	-1458.92651	942.49731	150.34117	-1462.65125	934.41437	224.40704	-1445.69580	1073.02930	67.44955	-1181.15662	477.30991	147.64642	-1188.59863	72.58290							196.03989	-1359.67627	1619.61292																								 
18	0.170	236.56902	-1918.20923	190.42136	39.36196	-1251.13135	619.64844	354.45328	-1160.49121	923.69836	90.56176	-1178.83862	272.91681	460.15948	-1315.96143	1048.07715	455.20789	-1320.61938	1147.22607	318.36609	-1463.86584	409.23807	361.16080	-1416.35986	584.71881	340.06775	-1279.01294	872.02618	401.21942	-1227.00916	980.17389	324.13385	-1160.90186	967.01770	351.18063	-1269.08264	1340.94043	201.38074	-1193.83301	1117.66724	-61.59050	-1381.40552	1051.09766	199.62939	-1221.79370	1289.72510	-35.63249	-1330.99695	950.16412	112.69540	-1274.76599	887.18750	287.50720	-1249.89343	1573.51294	-1.13924	-1362.82544	868.46979	52.24417	-1266.01965	1337.37720	314.60614	-1653.66956	362.54492	20.29193	-1336.00415	963.98407	264.64725	-1355.40356	1501.24780	198.27698	-1219.73169	41.59095	272.42593	-1863.57654	323.88177	221.34427	-1884.45068	370.33182	193.63191	-1345.99097	1364.38196	317.00797	-1097.50244	917.25586	135.96942	-1336.60815	1508.66296	-67.04813	-1373.74866	1225.64539	159.25719	-1033.07690	35.96004	306.77875	-1397.24036	1210.25623	-100.88460	-1437.67065	1139.76611	156.94440	-1225.84033	1581.51929	303.22668	-1426.41736	936.19312	152.34729	-1431.44031	930.18604	224.61325	-1413.08691	1068.58289	66.86562	-1150.01184	473.45895	152.90164	-1187.35266	70.96268							195.63121	-1328.15259	1614.78589																								 
19	0.180	241.09154	-1868.87939	203.26637	38.97532	-1218.63342	617.85010	363.34308	-1139.05139	897.92615	90.04420	-1159.64783	270.96460	457.28552	-1288.49829	1039.56970	452.82877	-1291.76843	1139.45142	320.77832	-1409.89783	397.76581	362.76712	-1372.42712	575.52197	340.04465	-1245.54785	867.93604	404.95108	-1202.47791	961.54877	330.00009	-1136.13989	938.68506	351.78107	-1238.09302	1334.99646	202.66565	-1160.83313	1112.44397	-60.28323	-1335.28882	1035.98193	200.31709	-1188.60852	1284.59448	-31.53150	-1283.37695	937.37787	111.52248	-1242.69019	885.48474	287.47379	-1218.49768	1569.23462	3.78493	-1310.64258	854.49823	50.91470	-1230.81812	1330.43958	316.22922	-1598.94739	360.17920	24.20487	-1290.73987	951.65424	264.42462	-1323.26147	1495.65393	198.13773	-1217.69165	41.78925	275.14902	-1810.52625	335.03070	223.66949	-1830.68713	382.11389	192.12393	-1312.92896	1359.35132	326.77823	-1076.60559	883.90594	135.70137	-1304.12891	1502.94055	-69.14583	-1331.65369	1211.00305	158.50665	-1029.83557	34.95518	304.37714	-1366.30542	1205.63525	-101.97705	-1391.99109	1122.70386	156.80577	-1194.07629	1577.22046	305.24863	-1394.33484	929.06543	154.51627	-1400.93616	926.08185	224.58791	-1380.41406	1063.63843	66.47006	-1118.55908	469.06592	153.37057	-1182.28113	70.69073							195.04233	-1296.93213	1609.21814																								 
20	0.190	246.77919	-1814.14148	213.18614	37.49276	-1184.85388	615.45471	373.31912	-1120.27808	871.77795	88.24583	-1137.24426	269.85413	455.34875	-1261.02490	1030.24976	449.63586	-1263.08521	1130.54651	323.35287	-1354.60364	386.80075	364.34900	-1328.46387	565.72491	339.80615	-1213.00464	863.01160	409.43857	-1179.37280	942.43304	337.07056	-1113.99548	910.00708	352.74139	-1207.73718	1328.69177	204.25977	-1128.38965	1106.48547	-58.29695	-1288.61475	1020.10773	201.02165	-1154.99536	1279.04236	-26.42807	-1234.33435	924.62891	110.51680	-1212.36145	883.44440	287.53442	-1187.16504	1565.00195	8.88079	-1255.41199	841.17816	49.52630	-1195.55273	1323.07227	319.15775	-1542.41223	357.75836	29.04418	-1244.57361	938.89880	264.06885	-1290.92676	1489.78113	198.24620	-1215.25293	43.66576	277.68826	-1754.16040	343.96561	225.64836	-1774.50427	391.31509	190.04788	-1279.99463	1353.81616	338.72467	-1059.29028	850.73608	135.33578	-1271.24927	1497.06726	-70.76749	-1289.27734	1195.20166	156.26680	-1026.42114	33.64115	301.92374	-1335.74365	1200.32532	-102.89857	-1345.52002	1104.90137	156.73866	-1162.20886	1573.03149	307.60220	-1362.83850	921.38275	156.86830	-1371.13940	921.91797	225.36955	-1348.78601	1058.94446	66.05595	-1087.97717	463.97073	153.52414	-1176.06189	71.26732							194.23987	-1265.55469	1603.42200																								 
